<svg xmlns="http://www.w3.org/2000/svg" version="1.1" xmlns:xlink="http://www.w3.org/1999/xlink" xmlns:svgjs="http://svgjs.dev/svgjs" width="128" height="128" viewBox="0 0 128 128"><g transform="matrix(0.8046875,0,0,0.8046875,12.333870967741937,35.41420857959339)"><svg viewBox="0 0 155 86" data-background-color="#ffffff" preserveAspectRatio="xMidYMid meet" height="71" width="128" xmlns="http://www.w3.org/2000/svg" xmlns:xlink="http://www.w3.org/1999/xlink"><g id="tight-bounds" transform="matrix(1,0,0,1,0.25,0.029179810725551647)"><svg viewBox="0 0 154.5 85.9416403785489" height="85.9416403785489" width="154.5"><g><svg viewBox="0 0 154.5 85.9416403785489" height="85.9416403785489" width="154.5"><g><svg viewBox="0 0 154.5 85.9416403785489" height="85.9416403785489" width="154.5"><g id="textblocktransform"><svg viewBox="0 0 154.5 85.9416403785489" height="85.9416403785489" width="154.5" id="textblock"><g><svg viewBox="0 0 154.5 85.9416403785489" height="85.9416403785489" width="154.5"><g transform="matrix(1,0,0,1,0,0)"><svg width="154.5" viewBox="-12.5 -26.45 47.55 26.45" height="85.9416403785489" data-palette-color="#1cbac7"><path d="M35.05 0L26.3 0 26.1-4.05 19.8-4.05 18.25 0 9.6 0 20.7-26.45 33.1-26.45 35.05 0ZM22.45-11.2L26.1-11.2 26.1-18.8 25.4-18.8 22.45-11.2ZM8.95-2.4L8-0.2-12.5-2.4 8.95-2.4ZM11-7.25L10.05-5.05-10.45-7.25 11-7.25ZM13-12.05L12.1-9.85-8.4-12.05 13-12.05ZM15.05-16.85L14.1-14.65-6.35-16.85 15.05-16.85ZM17.05-21.65L16.15-19.45-4.3-21.65 17.05-21.65ZM19.05-26.45L18.15-24.3-2.25-26.45 19.05-26.45Z" opacity="1" transform="matrix(1,0,0,1,0,0)" fill="#1cbac7" class="wordmark-text-0" data-fill-palette-color="primary" id="text-0"></path></svg></g></svg></g></svg></g></svg></g></svg></g><defs></defs></svg><rect width="154.5" height="85.9416403785489" fill="none" stroke="none" visibility="hidden"></rect></g></svg></g></svg>