<svg xmlns="http://www.w3.org/2000/svg" version="1.1" xmlns:xlink="http://www.w3.org/1999/xlink" xmlns:svgjs="http://svgjs.dev/svgjs" width="2000" height="232" viewBox="0 0 2000 232"><g transform="matrix(1,0,0,1,-1.2121212121212466,0.2365570514235742)"><svg viewBox="0 0 396 46" data-background-color="#ffffff" preserveAspectRatio="xMidYMid meet" height="232" width="2000" xmlns="http://www.w3.org/2000/svg" xmlns:xlink="http://www.w3.org/1999/xlink"><g id="tight-bounds" transform="matrix(1,0,0,1,0.2400000000000091,-0.0469035532995008)"><svg viewBox="0 0 395.52 46.09380710659899" height="46.09380710659899" width="395.52"><g><svg viewBox="0 0 395.52 46.09380710659899" height="46.09380710659899" width="395.52"><g><svg viewBox="0 0 395.52 46.09380710659899" height="46.09380710659899" width="395.52"><g id="textblocktransform"><svg viewBox="0 0 395.52 46.09380710659899" height="46.09380710659899" width="395.52" id="textblock"><g><svg viewBox="0 0 395.52 46.09380710659899" height="46.09380710659899" width="395.52"><g transform="matrix(1,0,0,1,0,0)"><svg width="395.52" viewBox="-12.5 -26.95 236.39 27.55" height="46.09380710659899" data-palette-color="#1cbac7"><path d="M35.05 0L26.3 0 26.1-4.05 19.8-4.05 18.25 0 9.6 0 20.7-26.45 33.1-26.45 35.05 0ZM22.45-11.2L26.1-11.2 26.1-18.8 25.4-18.8 22.45-11.2ZM8.95-2.4L8-0.2-12.5-2.4 8.95-2.4ZM11-7.25L10.05-5.05-10.45-7.25 11-7.25ZM13-12.05L12.1-9.85-8.4-12.05 13-12.05ZM15.05-16.85L14.1-14.65-6.35-16.85 15.05-16.85ZM17.05-21.65L16.15-19.45-4.3-21.65 17.05-21.65ZM19.05-26.45L18.15-24.3-2.25-26.45 19.05-26.45ZM44.3-2.4L43.9-0.15 22.7-2.4 44.3-2.4ZM49.2-21.65L49.05-19.4 27.85-21.65 49.2-21.65ZM49.55-26.45L49.4-24.2 28.2-26.45 49.55-26.45ZM24.25-7.25L45.85-7.25 44.95-6.2 44.75-5.05 24.25-7.25ZM32.95-16.85L54.55-16.85 52.7-14.75 32.95-16.85ZM48.35-9.95L28.65-12.05 50.25-12.05 48.35-9.95ZM68.4-7.15L67.2 0 45.45 0 46.4-5.55 58.4-18.85 58.3-19.15 50.55-19.15 51.05-26.45 71.65-26.45 70.65-20.9 58.6-7.45 58.7-7.15 68.4-7.15ZM103.95-15.55L101.45-1.4Q96.35 0.6 91.05 0.6 85.75 0.6 83.5-1.48 81.25-3.55 81.25-7.9L81.25-7.9Q81.25-10.05 81.95-14.05 82.65-18.05 84.1-20.9L84.1-20.9Q87.25-26.95 96.85-26.95L96.85-26.95Q102.45-26.95 104.65-25.85L104.65-25.85 102.1-18.9Q98.95-19.6 96.42-19.6 93.9-19.6 92.85-19.25 91.8-18.9 91.6-17.9L91.6-17.9 89.5-6.4 91.8-6.4Q93.05-6.4 93.72-6.68 94.4-6.95 94.55-7.9L94.55-7.9 94.9-9.85 92.85-9.85 93.85-15.55 103.95-15.55ZM60.1-12.05L80.05-12.05Q79.85-10.5 79.8-9.95L79.8-9.95 60.1-12.05ZM61-16.85L81-16.85 80.55-14.75 61-16.85ZM60.3-7.25L79.75-7.25Q79.75-6.45 79.95-5.15L79.95-5.15 60.3-7.25ZM63-21.65L82.75-21.65Q82.15-20.35 81.9-19.65L81.9-19.65 63-21.65ZM64.65-2.4L80.8-2.4Q81.4-1.2 82.1-0.55L82.1-0.55 64.65-2.4ZM69.7-26.45L87.1-26.45Q85.9-25.75 85.05-24.8L85.05-24.8 69.7-26.45ZM120.79-26.45L133.49-26.45Q140.79-26.45 140.79-19.85L140.79-19.85Q140.79-16.85 139.59-13.63 138.39-10.4 135.54-8.8L135.54-8.8 138.39 0 129.04 0 127.14-7.7 125.94-7.7 124.59 0 116.19 0 120.79-26.45ZM131.34-16.05L131.64-17.8Q131.64-17.85 131.69-18.3L131.69-18.3Q131.69-19.15 129.04-19.15L129.04-19.15 127.94-19.15 127.14-14.55 128.74-14.55Q131.04-14.55 131.34-16.05L131.34-16.05ZM114.94-2.4L114.54-0.15 93.34-2.4 114.94-2.4ZM116.64-12.05L116.24-9.8 95.04-12.05 116.64-12.05ZM117.49-16.85L117.09-14.6 95.89-16.85 117.49-16.85ZM118.34-21.65L117.94-19.4 96.74-21.65 118.34-21.65ZM119.14-26.45L118.79-24.2 97.59-26.45 119.14-26.45ZM115.79-7.25L115.39-5 94.19-7.25 115.79-7.25ZM177.09 0L168.34 0 168.14-4.05 161.84-4.05 160.29 0 151.64 0 162.74-26.45 175.14-26.45 177.09 0ZM164.49-11.2L168.14-11.2 168.14-18.8 167.44-18.8 164.49-11.2ZM150.99-2.4L150.04-0.2 129.54-2.4 150.99-2.4ZM153.04-7.25L152.09-5.05 131.59-7.25 153.04-7.25ZM155.04-12.05L154.14-9.85 133.64-12.05 155.04-12.05ZM157.09-16.85L156.14-14.65 135.69-16.85 157.09-16.85ZM159.09-21.65L158.19-19.45 137.74-21.65 159.09-21.65ZM161.09-26.45L160.19-24.3 139.79-26.45 161.09-26.45ZM213.19-10.75L208.69 0 202.09 0 201.34-10.75 201.09-10.75 198.69 0 190.14 0 196.19-26.45 207.04-26.45 207.79-14.05 207.99-14.05 213.04-26.45 223.89-26.45 220.69 0 212.09 0 213.44-10.75 213.19-10.75ZM188.99-2.4L188.49-0.15 167.29-2.4 188.99-2.4ZM190.14-7.25L189.59-5 168.44-7.25 190.14-7.25ZM191.24-12.05L190.74-9.8 169.59-12.05 191.24-12.05ZM192.29-16.85L191.74-14.6 170.74-16.85 192.29-16.85ZM193.39-21.65L192.89-19.4 171.89-21.65 193.39-21.65ZM194.54-26.45L193.99-24.2 173.04-26.45 194.54-26.45Z" opacity="1" transform="matrix(1,0,0,1,0,0)" fill="#1cbac7" class="wordmark-text-0" data-fill-palette-color="primary" id="text-0"></path></svg></g></svg></g></svg></g></svg></g></svg></g><defs></defs></svg><rect width="395.52" height="46.09380710659899" fill="none" stroke="none" visibility="hidden"></rect></g></svg></g></svg>